<?xml version="1.0" standalone="no"?>
<!DOCTYPE svg PUBLIC "-//W3C//DTD SVG 20010904//EN"
 "http://www.w3.org/TR/2001/REC-SVG-20010904/DTD/svg10.dtd">
<svg version="1.0" xmlns="http://www.w3.org/2000/svg"
 width="324.000000pt" height="500.000000pt" viewBox="0 0 324.000000 500.000000"
 preserveAspectRatio="xMidYMid meet">
<metadata>
Created by potrace 1.13, written by Peter Selinger 2001-2015
</metadata>
<g transform="translate(0.000000,500.000000) scale(0.100000,-0.100000)"
fill="#000000" stroke="none">
<path d="M1570 4990 c0 -5 -11 -10 -25 -10 -14 0 -25 -4 -25 -10 0 -5 -5 -10
-10 -10 -6 0 -22 -10 -35 -22 -36 -34 -53 -48 -60 -48 -3 0 -21 -16 -41 -35
-19 -19 -38 -35 -42 -35 -4 0 -26 -18 -50 -40 -23 -22 -46 -40 -52 -40 -5 0
-38 -27 -72 -60 -35 -33 -66 -60 -70 -60 -4 0 -45 -37 -92 -82 -46 -46 -110
-105 -141 -133 -31 -27 -75 -70 -98 -94 -23 -24 -52 -54 -64 -67 -13 -13 -23
-25 -23 -27 0 -3 -39 -45 -87 -94 -49 -49 -97 -102 -108 -117 -11 -16 -35 -44
-52 -62 -18 -18 -33 -37 -33 -42 0 -5 -9 -17 -20 -27 -11 -10 -20 -22 -20 -27
0 -9 -11 -24 -47 -63 -13 -13 -23 -29 -23 -35 0 -5 -4 -10 -10 -10 -5 0 -10
-7 -10 -16 0 -9 -8 -24 -18 -33 -9 -9 -26 -33 -37 -54 -11 -21 -28 -47 -38
-57 -9 -11 -17 -28 -17 -40 0 -11 -4 -20 -10 -20 -5 0 -10 -9 -10 -20 0 -11
-4 -20 -10 -20 -5 0 -10 -9 -10 -20 0 -11 -3 -20 -8 -20 -4 0 -12 -15 -18 -32
-6 -18 -23 -64 -38 -103 -15 -40 -26 -90 -26 -117 0 -27 -4 -48 -10 -48 -6 0
-10 -40 -10 -100 0 -60 4 -100 10 -100 6 0 10 -22 10 -49 0 -27 3 -51 8 -53 4
-1 24 -38 45 -80 22 -43 43 -78 48 -78 5 0 9 -7 9 -15 0 -8 5 -15 10 -15 6 0
10 -5 10 -11 0 -12 28 -39 84 -82 15 -12 39 -32 52 -44 12 -13 30 -23 37 -23
36 0 26 -33 -23 -81 -28 -27 -52 -49 -55 -49 -9 0 -75 -69 -75 -77 0 -5 -9
-15 -20 -23 -11 -8 -20 -22 -20 -32 0 -10 -4 -18 -8 -18 -12 0 -82 -135 -82
-159 0 -12 -4 -21 -10 -21 -5 0 -10 -22 -10 -50 0 -27 -4 -50 -10 -50 -6 0
-10 -40 -10 -100 0 -60 4 -100 10 -100 6 0 10 -21 10 -48 0 -27 11 -77 26
-117 15 -39 32 -85 38 -102 6 -18 14 -33 18 -33 5 0 8 -9 8 -20 0 -11 5 -20
10 -20 6 0 10 -7 10 -15 0 -8 5 -15 10 -15 6 0 10 -9 10 -20 0 -11 5 -20 10
-20 6 0 10 -5 10 -10 0 -14 50 -91 72 -111 10 -9 18 -22 18 -28 0 -7 6 -18 13
-25 6 -7 21 -25 32 -40 11 -16 31 -41 45 -56 14 -16 39 -45 55 -65 17 -20 49
-56 72 -81 24 -24 43 -46 43 -50 0 -5 41 -46 106 -105 16 -15 43 -43 59 -63
17 -19 33 -36 37 -36 8 0 57 -43 114 -97 18 -18 36 -33 39 -33 3 0 21 -15 40
-32 63 -60 84 -78 90 -78 3 0 17 -10 30 -23 13 -12 30 -27 37 -32 7 -6 32 -25
54 -43 23 -17 45 -32 48 -32 3 0 20 -14 38 -30 17 -17 35 -30 40 -30 5 0 21
-11 36 -25 15 -14 31 -25 36 -25 5 0 16 -8 25 -18 9 -9 28 -23 44 -31 15 -8
27 -18 27 -23 0 -4 5 -8 10 -8 6 0 16 -5 23 -10 57 -49 74 -60 90 -60 9 0 17
-4 17 -10 0 -6 28 -10 65 -10 37 0 65 4 65 10 0 6 9 10 20 10 11 0 20 4 20 9
0 5 8 12 18 15 9 3 31 19 49 36 18 16 37 30 42 30 6 0 11 5 11 10 0 6 5 10 11
10 7 0 19 8 28 18 9 10 34 31 56 47 22 17 51 41 65 55 14 14 43 38 65 55 22
16 57 46 77 67 20 21 39 38 42 38 9 0 215 192 318 297 130 131 208 215 208
222 0 4 29 38 65 74 36 36 65 73 65 82 0 8 4 15 8 15 4 0 15 12 24 28 9 15 30
42 47 60 17 17 31 39 31 47 0 8 5 15 10 15 6 0 10 7 10 15 0 8 4 15 9 15 5 0
13 9 16 20 3 11 12 26 19 33 19 19 66 106 66 122 0 8 5 15 10 15 6 0 10 7 10
15 0 8 5 15 10 15 6 0 10 9 10 20 0 11 3 20 8 20 4 0 12 15 18 33 26 76 50
132 57 135 4 2 7 28 7 58 0 30 5 54 10 54 6 0 10 50 10 130 0 80 -4 130 -10
130 -5 0 -10 16 -10 35 0 19 -4 43 -9 53 -5 9 -16 33 -25 52 -19 41 -35 67
-58 94 -10 11 -18 24 -18 29 0 10 -55 63 -104 100 -15 12 -39 32 -52 44 -12
13 -30 23 -39 23 -8 0 -15 9 -15 20 0 11 4 20 8 20 14 0 182 165 182 178 0 7
5 12 10 12 6 0 10 7 10 15 0 8 4 15 8 15 7 0 35 50 94 172 4 10 8 34 8 53 0
19 5 35 10 35 6 0 10 53 10 140 0 87 -4 140 -10 140 -5 0 -10 20 -10 45 0 25
-4 45 -10 45 -5 0 -10 10 -10 23 0 12 -12 45 -25 72 -14 28 -25 56 -25 63 0 6
-4 12 -10 12 -5 0 -10 9 -10 20 0 11 -4 20 -10 20 -5 0 -10 10 -10 23 0 12 -9
29 -20 37 -11 8 -20 22 -20 32 0 10 -4 18 -8 18 -5 0 -17 16 -28 35 -10 19
-21 35 -25 35 -4 0 -12 14 -19 30 -7 17 -16 30 -21 30 -5 0 -9 5 -9 10 0 6
-10 22 -22 34 -13 13 -33 37 -45 52 -12 16 -31 39 -42 51 -12 12 -21 25 -21
28 0 3 -25 30 -55 60 -30 30 -55 57 -55 60 0 6 -16 22 -107 106 -15 14 -41 42
-58 62 -16 20 -34 37 -38 37 -8 0 -29 18 -102 88 -24 23 -47 42 -50 42 -3 0
-21 15 -40 33 -67 62 -84 77 -92 77 -5 0 -15 9 -23 20 -8 11 -22 20 -32 20
-10 0 -18 6 -18 13 0 7 -18 23 -40 37 -22 14 -40 28 -40 32 0 5 -6 8 -13 8 -7
0 -19 9 -27 20 -8 11 -19 20 -25 20 -5 0 -26 14 -45 30 -19 16 -38 30 -42 30
-4 0 -18 11 -32 25 -14 14 -32 25 -41 25 -8 0 -15 4 -15 8 0 4 -12 15 -27 24
-16 9 -37 25 -48 35 -11 11 -35 26 -52 33 -18 8 -33 18 -33 22 0 5 -25 8 -55
8 -30 0 -55 -4 -55 -10z m18 -327 c15 -10 34 -25 43 -35 9 -10 22 -18 28 -18
7 0 18 -6 25 -12 7 -7 25 -22 41 -33 15 -11 38 -30 51 -42 13 -13 28 -23 34
-23 5 0 10 -4 10 -10 0 -5 7 -10 15 -10 8 0 15 -4 15 -10 0 -5 5 -10 10 -10 6
0 21 -10 34 -22 34 -34 75 -68 82 -68 2 0 16 -11 30 -25 14 -14 29 -25 33 -25
5 0 36 -27 69 -60 34 -33 64 -60 67 -60 17 0 395 -373 395 -389 0 -6 5 -11 10
-11 6 0 10 -5 10 -11 0 -6 16 -27 35 -47 19 -20 35 -41 35 -45 0 -5 14 -22 30
-37 17 -15 30 -31 30 -34 0 -7 51 -88 61 -96 3 -3 12 -20 20 -37 8 -18 17 -33
21 -33 5 0 8 -9 8 -20 0 -11 5 -20 10 -20 6 0 10 -9 10 -20 0 -11 5 -20 10
-20 6 0 10 -8 10 -18 0 -10 4 -22 9 -27 10 -12 28 -79 45 -170 11 -56 11 -84
1 -140 -12 -69 -51 -165 -67 -165 -4 0 -8 -5 -8 -11 0 -11 -104 -119 -115
-119 -3 0 -13 -6 -21 -12 -47 -40 -78 -58 -99 -58 -8 0 -15 -4 -15 -10 0 -5
-11 -10 -25 -10 -14 0 -25 -4 -25 -10 0 -5 -18 -10 -39 -10 -22 0 -43 -4 -46
-10 -3 -5 -40 -10 -81 -10 -43 0 -74 4 -74 10 0 6 -18 10 -40 10 -22 0 -40 5
-40 10 0 6 -7 10 -15 10 -24 0 -95 24 -95 32 0 5 -6 8 -13 8 -7 0 -24 11 -39
25 -15 14 -32 25 -38 25 -13 0 -110 97 -110 110 0 6 -4 10 -10 10 -5 0 -10 7
-10 15 0 8 -3 15 -8 15 -4 0 -13 15 -20 33 -7 17 -17 40 -22 49 -6 9 -12 34
-16 55 -7 48 22 123 48 123 10 0 18 5 18 10 0 6 9 10 20 10 11 0 20 5 20 10 0
6 7 10 15 10 8 0 15 3 15 8 0 9 59 30 122 43 50 10 128 -3 128 -21 0 -6 6 -10
14 -10 7 0 19 -13 26 -30 7 -16 16 -30 21 -30 5 0 9 -11 9 -25 0 -14 5 -25 10
-25 6 0 10 -16 10 -35 0 -24 9 -45 27 -65 23 -27 33 -30 84 -30 74 0 96 9 150
61 43 42 44 43 44 108 0 65 -22 161 -37 161 -4 0 -8 9 -8 20 0 11 -4 20 -10
20 -5 0 -10 5 -10 10 0 20 -67 91 -102 109 -16 8 -28 18 -28 23 0 4 -8 8 -17
8 -10 0 -27 7 -37 15 -15 11 -50 15 -145 15 -110 0 -135 -3 -203 -27 -43 -15
-78 -31 -78 -35 0 -4 -13 -8 -30 -8 -16 0 -30 -4 -30 -10 0 -5 -7 -10 -15 -10
-8 0 -15 -4 -15 -10 0 -5 -9 -10 -20 -10 -11 0 -20 -4 -20 -9 0 -5 -8 -12 -19
-16 -16 -5 -31 -16 -78 -55 -7 -5 -15 -10 -18 -10 -4 0 -24 -19 -46 -41 l-40
-41 -19 22 c-11 13 -20 27 -20 31 0 12 -127 139 -139 139 -5 0 -11 4 -13 9 -6
15 -117 81 -137 81 -11 0 -23 5 -26 10 -3 6 -24 10 -45 10 -21 0 -42 5 -45 10
-3 6 -33 10 -66 10 -33 0 -59 -4 -59 -10 0 -5 -20 -10 -45 -10 -25 0 -45 -4
-45 -10 0 -5 -9 -10 -19 -10 -25 0 -121 -49 -142 -72 -9 -10 -22 -18 -29 -18
-7 0 -45 -34 -84 -75 -88 -92 -96 -102 -96 -115 0 -5 -4 -10 -10 -10 -5 0 -10
-9 -10 -20 0 -11 -4 -20 -10 -20 -5 0 -10 -9 -10 -20 0 -11 -4 -20 -10 -20 -6
0 -10 -28 -10 -65 0 -37 4 -65 10 -65 6 0 10 -6 10 -13 0 -37 119 -50 173 -19
18 9 33 20 35 25 2 4 8 7 14 7 15 0 38 27 38 44 0 9 5 16 10 16 6 0 10 14 10
30 0 35 68 110 133 148 37 21 127 32 127 15 0 -5 19 -17 42 -28 48 -23 198
-167 198 -190 0 -8 5 -15 10 -15 6 0 10 -20 10 -45 0 -29 4 -45 13 -46 10 0
10 -2 0 -6 -7 -2 -13 -19 -13 -36 0 -25 -11 -43 -49 -79 -27 -27 -56 -48 -65
-48 -9 0 -16 -4 -16 -8 0 -9 -9 -14 -95 -53 -76 -34 -118 -41 -266 -46 -104
-3 -147 -1 -180 10 -56 19 -129 58 -129 69 0 4 -7 8 -15 8 -8 0 -15 5 -15 10
0 6 -7 10 -15 10 -8 0 -15 4 -15 8 0 5 -11 15 -25 22 -14 7 -25 18 -25 24 0 7
-9 18 -20 26 -11 8 -20 21 -20 29 0 7 -8 21 -18 30 -62 58 -70 318 -12 423 6
10 10 25 10 33 0 8 5 15 10 15 6 0 10 14 10 30 0 17 5 30 10 30 6 0 10 7 10
15 0 8 5 15 10 15 6 0 10 9 10 20 0 11 4 20 9 20 5 0 14 13 21 30 7 16 23 42
36 57 13 16 24 34 24 41 0 6 5 12 10 12 6 0 10 6 10 13 0 7 9 19 20 27 11 8
20 19 20 25 0 6 16 28 35 48 19 20 35 42 35 48 0 6 14 24 30 39 17 15 30 31
30 34 0 10 27 38 247 261 111 113 206 205 210 205 5 0 25 17 45 38 35 37 87
83 162 145 22 17 50 42 62 55 13 12 28 22 34 22 6 0 26 16 46 35 19 19 37 35
40 35 2 0 17 -8 32 -17z m12 -1960 c0 -7 5 -13 10 -13 6 0 10 -4 10 -10 0 -11
51 -70 99 -114 18 -17 44 -41 57 -53 13 -13 28 -23 34 -23 5 0 10 -4 10 -10 0
-5 6 -10 13 -10 7 0 20 -8 28 -18 15 -17 14 -20 -12 -38 -16 -10 -29 -22 -29
-26 0 -5 -5 -8 -11 -8 -11 0 -71 -59 -104 -103 -21 -29 -45 -36 -45 -14 0 7
-9 23 -20 35 -11 12 -20 24 -20 27 0 17 -172 185 -190 185 -5 0 -10 5 -10 10
0 6 -7 10 -15 10 -9 0 -18 7 -22 16 -7 18 69 94 93 94 8 0 14 4 14 8 0 4 16
25 35 46 19 21 35 43 35 49 0 5 9 2 20 -8 11 -10 20 -24 20 -32z m-610 -333
c0 -5 16 -10 35 -10 19 0 35 -4 35 -10 0 -5 7 -10 17 -10 17 0 99 -45 121 -67
7 -7 18 -13 23 -13 13 0 119 -110 119 -124 0 -6 9 -18 20 -26 11 -8 20 -22 20
-31 0 -9 7 -31 16 -48 25 -49 15 -131 -19 -165 -14 -14 -33 -26 -41 -26 -8 0
-16 -4 -18 -8 -5 -13 -109 -58 -166 -73 -52 -13 -55 -12 -107 15 -35 18 -57
37 -65 57 -7 16 -16 29 -21 29 -5 0 -9 16 -9 35 0 19 -4 35 -10 35 -5 0 -10
11 -10 25 0 14 -11 38 -25 53 -22 24 -33 27 -88 27 -48 0 -69 -5 -94 -23 -17
-12 -34 -22 -38 -22 -12 0 -35 -28 -35 -42 0 -8 -6 -20 -12 -26 -16 -16 -14
-130 1 -145 6 -6 11 -24 11 -39 0 -15 5 -28 10 -28 6 0 10 -9 10 -20 0 -11 5
-20 10 -20 6 0 10 -4 10 -10 0 -21 96 -120 116 -120 8 0 14 -4 14 -8 0 -5 12
-15 28 -22 67 -32 186 -41 292 -22 62 11 173 51 178 63 2 5 15 9 28 9 13 0 24
5 24 10 0 6 9 10 20 10 11 0 20 5 20 10 0 6 7 10 15 10 9 0 21 5 28 10 47 39
62 50 78 55 11 4 19 11 19 16 0 5 5 9 10 9 14 0 60 46 60 60 0 25 30 5 60 -40
23 -35 138 -150 150 -150 5 0 10 -4 10 -8 0 -5 18 -17 40 -27 22 -10 40 -22
40 -27 0 -4 11 -8 25 -8 14 0 25 -4 25 -10 0 -5 18 -10 40 -10 22 0 40 -4 40
-10 0 -6 38 -10 94 -10 53 0 98 4 101 10 3 6 19 10 36 10 16 0 29 5 29 10 0 6
9 10 20 10 24 0 90 31 90 42 0 4 6 8 13 8 7 0 23 9 35 20 12 11 24 20 27 20 6
0 39 29 88 77 57 57 73 78 88 111 7 18 17 32 21 32 5 0 8 9 8 20 0 11 5 20 10
20 17 0 12 149 -5 167 -34 33 -117 37 -176 7 -38 -19 -89 -70 -89 -88 0 -9 -4
-16 -10 -16 -5 0 -10 -14 -10 -31 0 -24 -10 -41 -47 -75 -27 -24 -56 -46 -66
-50 -9 -3 -17 -10 -17 -15 0 -5 -29 -9 -65 -9 -37 0 -65 4 -65 10 0 6 -7 10
-17 10 -39 0 -211 165 -220 212 -3 15 -9 28 -14 28 -17 0 -10 118 9 141 45 55
97 99 117 99 8 0 15 5 15 10 0 6 7 10 15 10 8 0 15 5 15 10 0 6 8 10 18 10 10
0 22 4 27 9 19 17 122 39 230 50 137 14 182 14 190 1 3 -5 17 -10 29 -10 27 0
113 -45 137 -72 9 -10 21 -18 28 -18 12 0 46 -26 70 -54 9 -10 26 -29 39 -42
12 -13 22 -30 22 -39 0 -8 4 -15 8 -15 11 0 32 -57 45 -125 12 -58 2 -194 -15
-220 -3 -6 -9 -27 -13 -48 -4 -20 -11 -40 -16 -43 -5 -3 -9 -14 -9 -25 0 -10
-4 -19 -10 -19 -5 0 -10 -11 -10 -25 0 -14 -4 -25 -10 -25 -5 0 -10 -9 -10
-20 0 -11 -4 -20 -10 -20 -5 0 -10 -9 -10 -19 0 -11 -3 -21 -8 -23 -4 -2 -25
-31 -47 -65 -22 -35 -43 -63 -47 -63 -5 0 -8 -7 -8 -15 0 -8 -13 -29 -30 -47
-17 -17 -30 -35 -30 -39 0 -5 -16 -24 -35 -43 -19 -20 -35 -40 -35 -46 0 -5
-3 -10 -8 -10 -4 0 -18 -18 -32 -40 -14 -22 -29 -40 -35 -40 -6 0 -19 -12 -30
-27 -11 -14 -41 -48 -67 -75 -27 -27 -48 -52 -48 -56 0 -4 -14 -16 -30 -27
-16 -11 -30 -26 -30 -32 0 -7 -4 -13 -9 -13 -5 0 -50 -40 -100 -90 -50 -49
-93 -90 -96 -90 -3 0 -25 -19 -49 -43 -51 -50 -94 -87 -101 -87 -3 0 -21 -15
-39 -32 -41 -41 -85 -78 -91 -78 -3 0 -26 -20 -52 -45 -25 -25 -53 -45 -60
-45 -17 0 -62 28 -84 52 -9 10 -24 18 -33 18 -9 0 -16 5 -16 10 0 6 -5 10 -10
10 -6 0 -21 10 -34 22 -13 13 -36 32 -51 43 -16 11 -34 26 -41 33 -7 6 -18 12
-24 12 -6 0 -26 15 -44 33 -18 17 -46 41 -61 52 -16 11 -39 30 -51 42 -13 13
-28 23 -34 23 -6 0 -39 29 -75 65 -35 36 -68 65 -73 65 -14 0 -392 375 -392
389 0 6 -18 30 -40 53 -22 24 -40 46 -40 50 0 4 -11 18 -25 32 -14 14 -25 30
-25 36 0 5 -4 10 -10 10 -5 0 -10 7 -10 15 0 8 -4 15 -10 15 -5 0 -10 5 -10
10 0 10 -8 22 -37 55 -7 7 -13 21 -13 29 0 9 -4 16 -10 16 -5 0 -10 7 -10 15
0 8 -4 15 -10 15 -5 0 -10 9 -10 20 0 11 -4 20 -10 20 -5 0 -10 11 -10 25 0
14 -4 25 -9 25 -5 0 -11 10 -14 23 -3 12 -14 55 -26 94 -38 131 -22 315 32
364 9 9 17 23 17 30 0 8 9 21 20 29 11 8 20 18 20 23 0 12 27 37 39 37 6 0 11
4 11 8 0 5 12 15 28 23 15 8 38 24 52 37 14 12 30 22 37 22 7 0 13 5 13 10 0
6 14 10 30 10 17 0 30 5 30 10 0 6 11 10 25 10 14 0 25 5 25 10 0 6 52 10 135
10 83 0 135 -4 135 -10z"/>
</g>
</svg>
